<svg width="80" height="80" viewBox="0 0 8 8" xmlns="http://www.w3.org/2000/svg" shape-rendering="crispEdges">
<rect width="100%" height="100%" fill="rgb(0, 128, 0)"/>
<rect x="0" y="0" width="1" height="1" fill="rgb(128, 128, 128)"/>
<rect x="0" y="4" width="1" height="1" fill="rgb(128, 128, 128)"/>
<rect x="0" y="5" width="1" height="1" fill="rgb(128, 128, 128)"/>
<rect x="0" y="6" width="1" height="1" fill="rgb(128, 128, 128)"/>
<rect x="1" y="1" width="1" height="1" fill="rgb(128, 128, 128)"/>
<rect x="2" y="1" width="1" height="1" fill="rgb(128, 128, 128)"/>
<rect x="2" y="2" width="1" height="1" fill="rgb(128, 128, 128)"/>
<rect x="2" y="4" width="1" height="1" fill="rgb(128, 128, 128)"/>
<rect x="2" y="6" width="1" height="1" fill="rgb(128, 128, 128)"/>
<rect x="2" y="7" width="1" height="1" fill="rgb(128, 128, 128)"/>
<rect x="3" y="1" width="1" height="1" fill="rgb(128, 128, 128)"/>
<rect x="3" y="3" width="1" height="1" fill="rgb(128, 128, 128)"/>
<rect x="3" y="4" width="1" height="1" fill="rgb(128, 128, 128)"/>
<rect x="3" y="6" width="1" height="1" fill="rgb(128, 128, 128)"/>
<rect x="3" y="7" width="1" height="1" fill="rgb(128, 128, 128)"/>
<rect x="4" y="1" width="1" height="1" fill="rgb(128, 128, 128)"/>
<rect x="4" y="5" width="1" height="1" fill="rgb(128, 128, 128)"/>
<rect x="4" y="6" width="1" height="1" fill="rgb(128, 128, 128)"/>
<rect x="5" y="2" width="1" height="1" fill="rgb(128, 128, 128)"/>
<rect x="5" y="3" width="1" height="1" fill="rgb(128, 128, 128)"/>
<rect x="5" y="7" width="1" height="1" fill="rgb(128, 128, 128)"/>
<rect x="6" y="1" width="1" height="1" fill="rgb(128, 128, 128)"/>
<rect x="6" y="2" width="1" height="1" fill="rgb(128, 128, 128)"/>
<rect x="6" y="3" width="1" height="1" fill="rgb(128, 128, 128)"/>
<rect x="6" y="4" width="1" height="1" fill="rgb(128, 128, 128)"/>
<rect x="6" y="7" width="1" height="1" fill="rgb(128, 128, 128)"/>
<rect x="7" y="2" width="1" height="1" fill="rgb(128, 128, 128)"/>
<rect x="7" y="3" width="1" height="1" fill="rgb(128, 128, 128)"/>
<rect x="7" y="5" width="1" height="1" fill="rgb(128, 128, 128)"/>
</svg>