<svg width="160" height="160" viewBox="0 0 16 16" xmlns="http://www.w3.org/2000/svg" shape-rendering="crispEdges">
<rect width="100%" height="100%" fill="rgb(0, 128, 0)"/>
<rect x="0" y="0" width="1" height="1" fill="rgb(128, 128, 128)"/>
<rect x="0" y="4" width="1" height="1" fill="rgb(128, 128, 128)"/>
<rect x="0" y="8" width="1" height="1" fill="rgb(128, 128, 128)"/>
<rect x="0" y="12" width="1" height="1" fill="rgb(128, 128, 128)"/>
<rect x="0" y="15" width="1" height="1" fill="rgb(128, 128, 128)"/>
<rect x="1" y="4" width="1" height="1" fill="rgb(128, 128, 128)"/>
<rect x="1" y="7" width="1" height="1" fill="rgb(128, 128, 128)"/>
<rect x="1" y="12" width="1" height="1" fill="rgb(128, 128, 128)"/>
<rect x="1" y="13" width="1" height="1" fill="rgb(128, 128, 128)"/>
<rect x="1" y="14" width="1" height="1" fill="rgb(128, 128, 128)"/>
<rect x="1" y="15" width="1" height="1" fill="rgb(128, 128, 128)"/>
<rect x="2" y="7" width="1" height="1" fill="rgb(128, 128, 128)"/>
<rect x="2" y="8" width="1" height="1" fill="rgb(128, 128, 128)"/>
<rect x="2" y="10" width="1" height="1" fill="rgb(128, 128, 128)"/>
<rect x="2" y="11" width="1" height="1" fill="rgb(128, 128, 128)"/>
<rect x="2" y="12" width="1" height="1" fill="rgb(128, 128, 128)"/>
<rect x="2" y="13" width="1" height="1" fill="rgb(128, 128, 128)"/>
<rect x="2" y="15" width="1" height="1" fill="rgb(128, 128, 128)"/>
<rect x="3" y="4" width="1" height="1" fill="rgb(128, 128, 128)"/>
<rect x="3" y="10" width="1" height="1" fill="rgb(128, 128, 128)"/>
<rect x="3" y="11" width="1" height="1" fill="rgb(128, 128, 128)"/>
<rect x="3" y="13" width="1" height="1" fill="rgb(128, 128, 128)"/>
<rect x="3" y="14" width="1" height="1" fill="rgb(128, 128, 128)"/>
<rect x="4" y="1" width="1" height="1" fill="rgb(128, 128, 128)"/>
<rect x="4" y="5" width="1" height="1" fill="rgb(128, 128, 128)"/>
<rect x="4" y="7" width="1" height="1" fill="rgb(128, 128, 128)"/>
<rect x="4" y="9" width="1" height="1" fill="rgb(128, 128, 128)"/>
<rect x="4" y="13" width="1" height="1" fill="rgb(128, 128, 128)"/>
<rect x="4" y="14" width="1" height="1" fill="rgb(128, 128, 128)"/>
<rect x="5" y="4" width="1" height="1" fill="rgb(128, 128, 128)"/>
<rect x="5" y="5" width="1" height="1" fill="rgb(128, 128, 128)"/>
<rect x="5" y="10" width="1" height="1" fill="rgb(128, 128, 128)"/>
<rect x="5" y="11" width="1" height="1" fill="rgb(128, 128, 128)"/>
<rect x="5" y="13" width="1" height="1" fill="rgb(128, 128, 128)"/>
<rect x="5" y="15" width="1" height="1" fill="rgb(128, 128, 128)"/>
<rect x="6" y="7" width="1" height="1" fill="rgb(128, 128, 128)"/>
<rect x="6" y="8" width="1" height="1" fill="rgb(128, 128, 128)"/>
<rect x="6" y="9" width="1" height="1" fill="rgb(128, 128, 128)"/>
<rect x="6" y="11" width="1" height="1" fill="rgb(128, 128, 128)"/>
<rect x="6" y="12" width="1" height="1" fill="rgb(128, 128, 128)"/>
<rect x="6" y="13" width="1" height="1" fill="rgb(128, 128, 128)"/>
<rect x="7" y="5" width="1" height="1" fill="rgb(128, 128, 128)"/>
<rect x="7" y="10" width="1" height="1" fill="rgb(128, 128, 128)"/>
<rect x="8" y="2" width="1" height="1" fill="rgb(128, 128, 128)"/>
<rect x="8" y="6" width="1" height="1" fill="rgb(128, 128, 128)"/>
<rect x="8" y="10" width="1" height="1" fill="rgb(128, 128, 128)"/>
<rect x="8" y="13" width="1" height="1" fill="rgb(128, 128, 128)"/>
<rect x="8" y="14" width="1" height="1" fill="rgb(128, 128, 128)"/>
<rect x="8" y="15" width="1" height="1" fill="rgb(128, 128, 128)"/>
<rect x="9" y="5" width="1" height="1" fill="rgb(128, 128, 128)"/>
<rect x="9" y="6" width="1" height="1" fill="rgb(128, 128, 128)"/>
<rect x="9" y="11" width="1" height="1" fill="rgb(128, 128, 128)"/>
<rect x="9" y="12" width="1" height="1" fill="rgb(128, 128, 128)"/>
<rect x="9" y="14" width="1" height="1" fill="rgb(128, 128, 128)"/>
<rect x="10" y="8" width="1" height="1" fill="rgb(128, 128, 128)"/>
<rect x="10" y="9" width="1" height="1" fill="rgb(128, 128, 128)"/>
<rect x="10" y="10" width="1" height="1" fill="rgb(128, 128, 128)"/>
<rect x="10" y="12" width="1" height="1" fill="rgb(128, 128, 128)"/>
<rect x="10" y="13" width="1" height="1" fill="rgb(128, 128, 128)"/>
<rect x="10" y="14" width="1" height="1" fill="rgb(128, 128, 128)"/>
<rect x="11" y="6" width="1" height="1" fill="rgb(128, 128, 128)"/>
<rect x="11" y="11" width="1" height="1" fill="rgb(128, 128, 128)"/>
<rect x="12" y="3" width="1" height="1" fill="rgb(128, 128, 128)"/>
<rect x="12" y="7" width="1" height="1" fill="rgb(128, 128, 128)"/>
<rect x="12" y="11" width="1" height="1" fill="rgb(128, 128, 128)"/>
<rect x="12" y="14" width="1" height="1" fill="rgb(128, 128, 128)"/>
<rect x="12" y="15" width="1" height="1" fill="rgb(128, 128, 128)"/>
<rect x="13" y="6" width="1" height="1" fill="rgb(128, 128, 128)"/>
<rect x="13" y="7" width="1" height="1" fill="rgb(128, 128, 128)"/>
<rect x="13" y="12" width="1" height="1" fill="rgb(128, 128, 128)"/>
<rect x="13" y="13" width="1" height="1" fill="rgb(128, 128, 128)"/>
<rect x="13" y="15" width="1" height="1" fill="rgb(128, 128, 128)"/>
<rect x="14" y="9" width="1" height="1" fill="rgb(128, 128, 128)"/>
<rect x="14" y="10" width="1" height="1" fill="rgb(128, 128, 128)"/>
<rect x="14" y="11" width="1" height="1" fill="rgb(128, 128, 128)"/>
<rect x="14" y="13" width="1" height="1" fill="rgb(128, 128, 128)"/>
<rect x="14" y="14" width="1" height="1" fill="rgb(128, 128, 128)"/>
<rect x="14" y="15" width="1" height="1" fill="rgb(128, 128, 128)"/>
<rect x="15" y="7" width="1" height="1" fill="rgb(128, 128, 128)"/>
<rect x="15" y="12" width="1" height="1" fill="rgb(128, 128, 128)"/>
</svg>